<?xml version="1.0" encoding="utf-8"?>
<!-- Uploaded to: SVG Repo, www.svgrepo.com, Generator: SVG Repo Mixer Tools -->
<!DOCTYPE svg PUBLIC "-//W3C//DTD SVG 1.1//EN" "http://www.w3.org/Graphics/SVG/1.1/DTD/svg11.dtd">
<svg fill="#000000" version="1.1" id="Layer_1" xmlns="http://www.w3.org/2000/svg" xmlns:xlink="http://www.w3.org/1999/xlink" 
	 width="800px" height="800px" viewBox="0 0 512 512" enable-background="new 0 0 512 512" xml:space="preserve">
<g>
	<path d="M170.065,114.799h171.869c10.348,0,18.734-8.387,18.734-18.734V21.02c0-5.793-4.683-10.477-10.477-10.477h-32.869
		c-5.781,0-10.459,4.684-10.459,10.477V50.9h-23.953V21.02c0-5.793-4.683-10.477-10.463-10.477h-32.896
		c-5.78,0-10.458,4.684-10.458,10.477V50.9h-23.958V21.02c0-5.793-4.678-10.477-10.459-10.477h-32.864
		c-5.798,0-10.476,4.684-10.476,10.477v75.045C151.337,106.412,159.718,114.799,170.065,114.799z"/>
	<path d="M143.511,407.811h227.536c5.798,0,11.259-2.686,14.803-7.266c3.562-4.584,4.776-10.555,3.321-16.18L333.486,169.83
		c-2.139-8.258-9.601-14.025-18.124-14.025H199.194c-8.527,0-15.984,5.768-18.123,14.025l-55.686,214.535
		c-1.454,5.625-0.24,11.596,3.322,16.18C132.251,405.125,137.712,407.811,143.511,407.811z"/>
	<path d="M375.249,447.289H136.756c-10.352,0-18.733,8.381-18.733,18.732v16.701c0,10.352,8.382,18.734,18.733,18.734h238.493
		c10.348,0,18.729-8.383,18.729-18.734v-16.701C393.978,455.67,385.597,447.289,375.249,447.289z"/>
</g>
</svg>