<svg width="52" height="52" viewBox="0 0 52 52" fill="none" xmlns="http://www.w3.org/2000/svg">
<g clip-path="url(#clip0_304_62)">
<path opacity="0.5" d="M13.9295 26H11.5153C6.96324 26 4.68719 26 3.27305 27.4142C1.85889 28.8284 1.85889 31.1044 1.85889 35.6565V40.4847C1.85889 45.0367 1.85889 47.3128 3.27305 48.7269C4.68719 50.1411 6.96324 50.1411 11.5153 50.1411H16.3436C20.8957 50.1411 23.1716 50.1411 24.5858 48.7269C26 47.3128 26 45.0367 26 40.4847V38.0706" stroke="#1C274C" stroke-width="2"/>
<path d="M26 13.9297H23.5859C19.0338 13.9297 16.7577 13.9297 15.3436 15.3439C13.9294 16.758 13.9294 19.034 13.9294 23.5861V28.4144C13.9294 32.9664 13.9294 35.2424 15.3436 36.6566C16.7577 38.0708 19.0338 38.0708 23.5859 38.0708H28.4141C32.9662 38.0708 35.2422 38.0708 36.6564 36.6566C38.0706 35.2424 38.0706 32.9664 38.0706 28.4144V26.0003" stroke="#1C274C" stroke-width="2"/>
<path d="M26 11.5149C26 6.96275 26 4.6867 27.4142 3.27256C28.8284 1.8584 31.1044 1.8584 35.6565 1.8584H40.4847C45.0367 1.8584 47.3128 1.8584 48.7269 3.27256C50.1411 4.6867 50.1411 6.96275 50.1411 11.5149V16.3431C50.1411 20.8952 50.1411 23.1712 48.7269 24.5853C47.3128 25.9995 45.0367 25.9995 40.4847 25.9995H35.6565C31.1044 25.9995 28.8284 25.9995 27.4142 24.5853C26 23.1712 26 20.8952 26 16.3431V11.5149Z" stroke="#1C274C" stroke-width="2"/>
</g>
<defs>
<clipPath id="clip0_304_62">
<rect width="52" height="52" fill="white"/>
</clipPath>
</defs>
</svg>
