<svg width="22" height="24" viewBox="0 0 22 24" fill="none" xmlns="http://www.w3.org/2000/svg">
<g clip-path="url(#clip0_315_32)">
<path d="M4.6535 11.1543C4.6535 8.11961 4.6535 6.60229 5.59625 5.65954C6.53899 4.7168 8.05632 4.7168 11.091 4.7168H14.3097C17.3443 4.7168 18.8616 4.7168 19.8044 5.65954C20.7472 6.60229 20.7472 8.11961 20.7472 11.1543V16.5188C20.7472 19.5534 20.7472 21.0708 19.8044 22.0135C18.8616 22.9563 17.3443 22.9563 14.3097 22.9563H11.091C8.05632 22.9563 6.53899 22.9563 5.59625 22.0135C4.6535 21.0708 4.6535 19.5534 4.6535 16.5188V11.1543Z" stroke="#49297E" stroke-width="1.5"/>
<path d="M4.65349 19.7375C2.87583 19.7375 1.43475 18.2965 1.43475 16.5188V10.0813C1.43475 6.03513 1.43475 4.01204 2.69174 2.75504C3.94874 1.49805 5.97184 1.49805 10.018 1.49805H14.3097C16.0874 1.49805 17.5284 2.93913 17.5284 4.71678" stroke="#49297E" stroke-width="1.5"/>
</g>
<defs>
<clipPath id="clip0_315_32">
<rect width="22" height="23.913" fill="white"/>
</clipPath>
</defs>
</svg>
