<svg width="12" height="12" viewBox="0 0 12 12" fill="none" xmlns="http://www.w3.org/2000/svg">
<path d="M0.937932 0.159704L6 5.2219L11.0621 0.159704C11.2586 -0.0368548 11.5679 -0.0519739 11.7818 0.114345L11.8403 0.166814C12.0532 0.379753 12.0532 0.724996 11.8403 0.937935L6.77809 5.99999L11.8403 11.0621C12.0369 11.2586 12.052 11.5679 11.8857 11.7818L11.8332 11.8403C11.6202 12.0532 11.275 12.0532 11.0621 11.8403L6 6.77808L0.937932 11.8403C0.741373 12.0368 0.432081 12.052 0.218179 11.8856L0.159705 11.8332C-0.0532344 11.6202 -0.0532344 11.275 0.159705 11.0621L5.22191 5.99999L0.159705 0.937935C-0.0368541 0.741376 -0.0519754 0.432084 0.114344 0.218182L0.166827 0.159704C0.379766 -0.0532348 0.724993 -0.0532348 0.937932 0.159704ZM0.545257 0.552374L5.99304 5.99999L0.545257 11.4476L0.552379 11.4547L6 6.00696L11.4476 11.4547L11.4547 11.4476L6.00696 5.99999L11.4547 0.552374L11.4476 0.545265L6 5.99303L0.552379 0.545265L0.545257 0.552374Z" fill="#252528"/>
</svg>
