<svg width="21" height="20" viewBox="0 0 21 20" fill="none" xmlns="http://www.w3.org/2000/svg">
<g clip-path="url(#clip0_351_297)">
<path d="M19.2501 17.9684H18.7814V2.49965C18.7814 2.0684 18.4314 1.7184 18.0001 1.7184H14.2501C13.8189 1.7184 13.4689 2.0684 13.4689 2.49965C13.4689 2.9309 13.8189 3.2809 14.2501 3.2809H17.2189V18.7496C17.2195 19.1809 17.5689 19.5303 18.0001 19.5309H19.2501C19.6814 19.5309 20.0314 19.1809 20.0314 18.7496C20.0314 18.3184 19.6814 17.9684 19.2501 17.9684ZM11.6064 0.479023L4.12076 1.72902C3.74826 1.7934 3.46826 2.11402 3.46826 2.49965V17.9684H1.74951C1.31826 17.9684 0.968262 18.3184 0.968262 18.7496C0.968262 19.1809 1.31826 19.5309 1.74951 19.5309H11.7351C12.1664 19.5303 12.5158 19.1809 12.5164 18.7496V1.24965C12.5164 0.818398 12.167 0.467773 11.7351 0.467773C11.6895 0.467773 11.6451 0.471523 11.6014 0.479023H11.6064ZM5.03139 17.9684V3.16152L10.9545 2.17215V17.9684H5.03139ZM9.61264 9.44965C9.54014 9.38277 9.45764 9.32402 9.36889 9.27777L9.36264 9.27465C9.27389 9.23902 9.17076 9.2184 9.06264 9.2184C8.95451 9.2184 8.85139 9.23902 8.75701 9.27652L8.76264 9.27465C8.66451 9.31715 8.58139 9.37652 8.51264 9.44965C8.44076 9.51965 8.38139 9.60277 8.33951 9.69465L8.33764 9.69965C8.29764 9.78777 8.27451 9.8909 8.27451 9.99965C8.27451 10.1084 8.29764 10.2115 8.33951 10.3046L8.33764 10.2996C8.38201 10.3971 8.44076 10.4796 8.51201 10.5496C8.58076 10.6228 8.66451 10.6821 8.75764 10.7221L8.76264 10.724C8.85201 10.7559 8.95514 10.774 9.06264 10.774C9.17014 10.774 9.27326 10.7559 9.36889 10.7221L9.36264 10.724C9.45826 10.6746 9.54014 10.6165 9.61326 10.549C9.68076 10.479 9.73514 10.3965 9.77326 10.3046L9.77514 10.2996C9.81451 10.2115 9.83764 10.1084 9.83764 9.99965C9.83764 9.8909 9.81451 9.78777 9.77326 9.69465L9.77514 9.69965C9.73514 9.60277 9.68014 9.52027 9.61264 9.44965Z" fill="white"/>
</g>
<defs>
<clipPath id="clip0_351_297">
<rect width="20" height="20" fill="white" transform="translate(0.5)"/>
</clipPath>
</defs>
</svg>
