<svg width="20" height="20" viewBox="0 0 20 20" fill="none" xmlns="http://www.w3.org/2000/svg">
<g clip-path="url(#clip0_316_57)">
<path d="M19.375 10V18.6458C19.3755 18.7417 19.357 18.8368 19.3206 18.9255C19.2841 19.0142 19.2304 19.0948 19.1626 19.1626C19.0948 19.2304 19.0142 19.2841 18.9255 19.3206C18.8368 19.357 18.7417 19.3755 18.6458 19.375H1.35418C1.25827 19.3755 1.16322 19.357 1.07451 19.3206C0.985804 19.2841 0.90521 19.2304 0.837394 19.1626C0.769579 19.0948 0.715889 19.0142 0.679433 18.9255C0.642977 18.8368 0.62448 18.7417 0.625011 18.6458V1.35418C0.62448 1.25827 0.642977 1.16322 0.679433 1.07451C0.715889 0.985804 0.769579 0.90521 0.837394 0.837394C0.90521 0.769579 0.985804 0.715889 1.07451 0.679433C1.16322 0.642977 1.25827 0.62448 1.35418 0.625011H10" stroke="#49297E" stroke-width="2"/>
<path d="M13.3334 0.625H19.375V6.86699" stroke="#49297E" stroke-width="2"/>
<path d="M4.91986 15.4966L19.0585 0.749023" stroke="#49297E" stroke-width="2"/>
</g>
<defs>
<clipPath id="clip0_316_57">
<rect width="20" height="20" fill="white"/>
</clipPath>
</defs>
</svg>
