<svg width="18" height="18" viewBox="0 0 18 18" fill="none" xmlns="http://www.w3.org/2000/svg">
<path fill-rule="evenodd" clip-rule="evenodd" d="M17.9918 3.68629C17.9918 5.71785 16.3449 7.36476 14.3134 7.36476C13.1684 7.36476 12.1456 6.84166 11.471 6.02141L7.26138 8.1262C7.32918 8.40544 7.36513 8.69719 7.36513 8.99727C7.36513 9.2989 7.32883 9.59204 7.26036 9.8725L11.471 11.9778C12.1457 11.1576 13.1684 10.6345 14.3134 10.6345C16.3449 10.6345 17.9918 12.2814 17.9918 14.313C17.9918 16.3446 16.3449 17.9915 14.3134 17.9915C12.2818 17.9915 10.6349 16.3446 10.6349 14.313C10.6349 14.0121 10.671 13.7197 10.7392 13.4398L6.52769 11.3341C5.85303 12.1534 4.83085 12.6757 3.68665 12.6757C1.65509 12.6757 0.00817871 11.0288 0.00817871 8.99727C0.00817871 6.96573 1.65509 5.31882 3.68665 5.31882C4.83238 5.31882 5.85578 5.84263 6.53041 6.66384L10.7391 4.55947C10.671 4.27958 10.6349 3.98715 10.6349 3.68629C10.6349 1.65472 12.2818 0.0078125 14.3134 0.0078125C16.3449 0.0078125 17.9918 1.65472 17.9918 3.68629ZM12.2721 3.68629C12.2721 4.81364 13.186 5.72754 14.3134 5.72754C15.4407 5.72754 16.3546 4.81364 16.3546 3.68629C16.3546 2.55893 15.4407 1.64504 14.3134 1.64504C13.186 1.64504 12.2721 2.55893 12.2721 3.68629ZM12.2721 14.313C12.2721 15.4403 13.186 16.3542 14.3134 16.3542C15.4407 16.3542 16.3546 15.4403 16.3546 14.313C16.3546 13.1857 15.4407 12.2718 14.3134 12.2718C13.186 12.2718 12.2721 13.1857 12.2721 14.313ZM3.68665 11.0386C2.5593 11.0386 1.6454 10.1247 1.6454 8.99727C1.6454 7.86994 2.5593 6.95604 3.68665 6.95604C4.81401 6.95604 5.7279 7.86994 5.7279 8.99727C5.7279 10.1247 4.81401 11.0386 3.68665 11.0386Z" fill="white"/>
</svg>
