<svg width="20" height="20" viewBox="0 0 20 20" fill="none" xmlns="http://www.w3.org/2000/svg">
<g clip-path="url(#clip0_316_76)">
<path d="M19.285 5.35737H11.857C10.1694 5.35737 9.15199 6.18561 8.77474 6.5647C8.65793 6.6821 8.59953 6.7408 8.59869 6.7416C8.59795 6.7424 8.53918 6.80081 8.42181 6.91765C8.04272 7.29489 7.21448 8.31224 7.21448 9.99989V12.7854M19.285 5.35737L14.6425 0.714844M19.285 5.35737L14.6425 9.99989" stroke="#1C274C" stroke-width="1.5" stroke-linecap="round" stroke-linejoin="round"/>
<path d="M2.07509 17.9249C3.43521 19.2849 5.62428 19.2849 10.0024 19.2849C14.3806 19.2849 16.5697 19.2849 17.9298 17.9249C19.0822 16.7724 19.2582 15.0249 19.2851 11.855M2.07509 17.9249C0.714966 16.5647 0.714966 14.3757 0.714966 9.99748M2.07509 17.9249C3.43484 19.2846 5.623 19.2849 10 19.2849C14.377 19.2849 16.5656 19.2849 17.9253 17.9251C19.0775 16.773 19.2534 15.0258 19.2802 11.8563M2.07509 17.9249C0.715319 16.5651 0.714966 14.3769 0.714966 9.99989M2.07509 2.07012C3.22749 0.917704 4.97501 0.741724 8.14496 0.714844M0.766126 6.28587C0.867649 4.24924 1.17061 2.97873 2.07473 2.07461C3.22684 0.922495 4.9739 0.746552 8.14301 0.71969" stroke="#1C274C" stroke-width="1.5" stroke-linecap="round"/>
</g>
<defs>
<clipPath id="clip0_316_76">
<rect width="20" height="20" fill="white"/>
</clipPath>
</defs>
</svg>
