<svg width="20" height="21" viewBox="0 0 20 21" fill="none" xmlns="http://www.w3.org/2000/svg">
<path d="M10 0.5C4.46939 0.5 0 4.96939 0 10.5C0 16.0306 4.46939 20.5 10 20.5C15.5306 20.5 20 16.0306 20 10.5C20 4.96939 15.5306 0.5 10 0.5ZM10 18.8388C5.40408 18.8388 1.66122 15.0959 1.66122 10.5C1.66122 5.90408 5.40408 2.16122 10 2.16122C14.5959 2.16122 18.3388 5.90408 18.3388 10.5C18.3388 15.0959 14.5959 18.8388 10 18.8388Z" fill="#8FA9BD"/>
<path d="M11.8735 9.64723H10.8531V5.73294C10.8531 5.26356 10.4694 4.87988 10 4.87988C9.53065 4.87988 9.14697 5.26356 9.14697 5.73294V10.5003C9.14697 10.9697 9.53065 11.3534 10 11.3534H11.8735C12.3429 11.3534 12.7266 10.9697 12.7266 10.5003C12.7266 10.0309 12.3388 9.64723 11.8735 9.64723Z" fill="#8FA9BD"/>
</svg>
