<?xml version="1.0" encoding="utf-8"?>
<!-- Generator: Adobe Illustrator 27.8.0, SVG Export Plug-In . SVG Version: 6.00 Build 0)  -->
<svg  fill="#000000" version="1.1" id="Layer_1" xmlns="http://www.w3.org/2000/svg" xmlns:xlink="http://www.w3.org/1999/xlink"
	width="800px" height="800px" viewBox="0 0 800 800" enable-background="new 0 0 100 100" xml:space="preserve">

<g>
	<g>
		<g>
			<path class="st0" d="M223.9,613.3c-2.8,6,8,10.8,12.4,10.9c2.6,0,118.1,0,166.5,0c48.5,0,163.9,0,166.6,0
				c4.5-0.1,15.2-5,12.4-10.9c-3.3-7.6-15.1-9.2-19.4-9.2c-3.1,0-97,0-145.4,0c0,0-11.5,0-28.4,0c-48.5,0-142.3,0-145.5,0
				C239,604.1,227.2,605.7,223.9,613.3z"/>
			<path class="st0" d="M311.4,355.9h176.3l-5.1-62c0,0,110.9-121.8,100.5-128.1c-11.2-6.8-55.1,5-72.5,5c-9.7,0-25,0-34.7,0
				c0,0,0-6.3,0-8.7c0-5.6-7.9-10.1-17.6-10.1c-7.9,0-32.9,0-58.2,0c-24.8,0-49.8,0-59.2,0c-9.7,0-17.5,4.5-17.5,10.1
				c0,2.4,0,8.7,0,8.7c-9.8,0-25,0-34.8,0c-16.9,0-60.4-12-71.4-5.6s100.3,130.2,100.3,130.2L311.4,355.9z"/>
			<path class="st0" d="M546.2,377c0-5.9-6.2-10.7-13.8-10.7H253.7c-7.6,0-13.7,4.8-13.7,10.7c0,5.9,6.1,10.7,13.7,10.7h48.9
				c-10.2,93.1-17.2,151.8-56.7,203h313c-39.5-51.2-51.8-109.9-62.6-203h36.1C540.1,387.7,546.2,382.8,546.2,377z"/>
			<circle class="st0" cx="400" cy="109.2" r="53"/>
		</g>
	</g>
	<path d="M234.4,668.9h331.3c9.1,0,16.6-7.5,16.6-16.6s-7.5-16.6-16.6-16.6H234.4c-9.1,0-16.6,7.5-16.6,16.6
		C217.9,661.4,225.3,668.9,234.4,668.9z"/>
	<path d="M590.5,677.1h-381c-18.2,0-33.1,14.9-33.1,33.1c0,18.2,14.9,33.1,33.1,33.1h381c18.2,0,33.1-14.9,33.1-33.1
		S608.7,677.1,590.5,677.1z"/>
</g>
</svg>
