<?xml version="1.0" encoding="utf-8"?>
<!-- Generator: Adobe Illustrator 27.8.0, SVG Export Plug-In . SVG Version: 6.00 Build 0)  -->
<svg fill="#000000" version="1.1" id="Layer_1" xmlns="http://www.w3.org/2000/svg" xmlns:xlink="http://www.w3.org/1999/xlink"
	width="800px" height="800px"  viewBox="0 0 800 800" enable-background="new 0 0 100 100" xml:space="preserve">
<g>
	<g>
		<path d="M257.3,382c20.7,0,41.2-16,51.7-25.7c5.4,2.2,11.3,3.3,17.7,3.3l0,0c26.7,0,56.3-20,75.1-35.2
			c-1.8,66.2-79.2,109.8-80,110.3c-0.8,0.4-1.5,0.9-2.2,1.5c-62.1,53.9-58,147.3-51.2,194H544c1.5-40.6,13.3-123.1,25.1-178.8
			L495.4,525c-2.4,2.4-5.6,3.7-8.8,3.7c-3.2,0-6.4-1.2-8.8-3.7c-4.9-4.9-4.9-12.8,0-17.6l101.6-101.6c3.4-16.7,5.8-33.1,7.3-49.2
			l-91.3,91.3c-2.4,2.4-5.6,3.7-8.8,3.7c-3.2,0-6.4-1.2-8.8-3.7c-4.9-4.9-4.9-12.8,0-17.6l110.6-110.6c0-13.6-0.6-26.9-2-39.9
			l-91,91c-2.4,2.4-5.6,3.7-8.8,3.7s-6.4-1.2-8.8-3.7c-4.9-4.9-4.9-12.8,0-17.6l103.8-103.8c-3.2-15.5-7.4-30.3-12.7-44.6l-58,58
			c-2.4,2.4-5.6,3.7-8.8,3.7s-6.4-1.2-8.8-3.7c-4.9-4.9-4.9-12.8,0-17.6l65.1-65.1c-15.7-32.2-37.2-60.6-64.6-84.1
			C463.4,69.5,439,57.7,438,57.2c-6.2-3-13.5-0.4-16.6,5.7l-32.5,65l-46.4-66.6c-3.1-4.5-8.8-6.4-14-4.8c-5.2,1.6-8.7,6.5-8.7,11.9
			v118.9L213.6,311.8c-2.3,2.7-3.4,6.3-2.9,9.9C217.8,371.6,240,382,257.3,382z"/>
	</g>
	<path d="M277.8,671.6h255.6c8.8,0,16-7.2,16-16s-7.2-16-16-16H277.8c-8.8,0-16,7.2-16,16C261.9,664.4,269.1,671.6,277.8,671.6z"/>
	<path d="M557.4,679.6H253.9c-17.6,0-32,14.4-32,32s14.4,32,32,32h303.6c17.6,0,32-14.4,32-32C589.4,694,575,679.6,557.4,679.6z"/>
</g>
</svg>
