<?xml version="1.0" encoding="utf-8"?>
<!-- Generator: Adobe Illustrator 27.8.0, SVG Export Plug-In . SVG Version: 6.00 Build 0)  -->
<svg version="1.1" fill="#8C0C09" id="Layer_1" xmlns="http://www.w3.org/2000/svg" xmlns:xlink="http://www.w3.org/1999/xlink"
	width="800px" height="800px" viewBox="0 0 800 800" enable-background="new 0 0 100 100" xml:space="preserve">
<path d="M242.6,180.2V56h58v49.7h49.7V56h99.4v49.7h49.7V56h58v124.2c0,18.2-14.9,33.1-33.1,33.1H275.8
	C257.5,213.4,242.6,198.5,242.6,180.2z M524.2,254.8c9.1,0,16.6-7.5,16.6-16.6s-7.5-16.6-16.6-16.6H275.8c-9.1,0-16.6,7.5-16.6,16.6
	s7.5,16.6,16.6,16.6H524.2z M234.3,669h331.3c9.1,0,16.6-7.5,16.6-16.6s-7.5-16.6-16.6-16.6H234.3c-9.1,0-16.6,7.5-16.6,16.6
	C217.8,661.5,225.2,669,234.3,669z M590.5,677.2h-381c-18.2,0-33.1,14.9-33.1,33.1c0,18.2,14.9,33.1,33.1,33.1h381
	c18.2,0,33.1-14.9,33.1-33.1C623.6,692.1,608.7,677.2,590.5,677.2z M551.3,627.5c-14.9-51.8-51.9-73.4-51.9-364.5H300.6
	c0,291.1-37,312.7-51.9,364.5H551.3z"/>
</svg>
