<?xml version="1.0" encoding="utf-8"?>
<!-- Generator: Adobe Illustrator 27.8.0, SVG Export Plug-In . SVG Version: 6.00 Build 0)  -->
<svg fill="#8C0C09" version="1.1" id="Layer_1" xmlns="http://www.w3.org/2000/svg" xmlns:xlink="http://www.w3.org/1999/xlink"
	 width="800px" height="800px"  viewBox="0 0 800 800" enable-background="new 0 0 100 100" xml:space="preserve">
<g>
	<g>
		<path d="M254.3,256.3c-40.2-44.5-44.8-100.5-10.2-125.1c22.2-15.8,55.2-14.6,86.6-0.1c1.7-41.3,31.9-74.3,69.2-74.3
			s67.5,33,69.2,74.3c31.4-14.5,64.3-15.7,86.6,0.1c34.6,24.6,30.1,80.6-10.2,125.1c-6.8,7.6-17.4,15.5-28.2,22.5h34.3v87.1h-46.1
			v248.9H294.3V365.9h-46.1v-87.1h32.4C270.1,270.9,259.9,262.5,254.3,256.3z M462.6,134.8h-0.3v0.2
			C462.3,134.9,462.4,134.8,462.6,134.8z M337.5,134.8c0.5,0.3,1,0.6,1.6,0.9v-0.9H337.5z"/>
	</g>
	<path d="M219.7,661.9h360.6c9.9,0,18-8.1,18-18s-8.1-18-18-18H219.7c-9.9,0-18,8.1-18,18C201.7,653.8,209.8,661.9,219.7,661.9z"/>
	<path d="M607.3,670.9H192.7c-19.8,0-36.1,16.2-36.1,36.1c0,19.8,16.2,36.1,36.1,36.1h414.7c19.8,0,36.1-16.2,36.1-36.1
		C643.4,687.1,627.2,670.9,607.3,670.9z"/>
</g>
</svg>
